<?xml version="1.0" encoding="UTF-8" standalone="no"?>
<svg width="100%" height="100%" viewBox="0 0 120 199" version="1.1" xmlns="http://www.w3.org/2000/svg" xmlns:xlink="http://www.w3.org/1999/xlink">
    <!-- Generator: Sketch 43.1 (39012) - http://www.bohemiancoding.com/sketch -->
    <title>wwf_logo_top_tab_3mm_anschnitt</title>
    <desc>Created with Sketch.</desc>
    <defs></defs>
    <g id="Page-1" stroke="none" stroke-width="1" fill="none" fill-rule="evenodd">
        <g id="Desktop-Header" transform="translate(-60.000000, 0.000000)">
            <g id="wwf_logo_top_tab_3mm_anschnitt" transform="translate(60.000000, -1.000000)">
                <polygon id="Fill-1" fill="#FFFFFF" points="0.199271628 199.800728 118.888642 199.800728 118.888642 0.586490758 0.199271628 0.586490758"></polygon>
                <polyline id="Stroke-2" stroke="#1A1918" stroke-width="0.25" points="118.888642 0.586490758 118.888642 199.800728 0.199271628 199.800728 0.199271628 0.586490758"></polyline>
                <path d="M49.2982066,153.110589 C48.6732907,153.110589 48.1488078,153.505944 47.9495362,154.044774 L45.2027761,160.993774 L44.9588676,161.784484 L44.7420601,160.977833 L42.6170274,154.221727 C42.6170274,154.193032 42.6010857,154.172308 42.5931148,154.159555 L42.5931148,154.140425 C42.392249,153.574493 41.8550127,153.172762 41.2348794,153.172762 L37.8090016,153.172762 C37.0342335,153.215804 36.4236652,153.842314 36.4236652,154.620271 C36.4236652,154.829107 36.522504,155.103305 36.587865,155.361561 L37.0342335,156.775593 L35.3539751,161.00334 L35.0909366,161.784484 L34.8725349,160.993774 L32.7602556,154.221727 C32.736343,154.193032 32.736343,154.172308 32.7299663,154.159555 L32.7299663,154.140425 C32.5322889,153.574493 31.9838934,153.172762 31.3733251,153.172762 L27.9442589,153.172762 C27.1854326,153.215804 26.5605167,153.842314 26.5605167,154.620271 C26.5605167,154.829107 26.6450079,155.103305 26.7326874,155.361561 L31.8627362,170.656057 C32.017371,171.280973 32.5944616,171.741689 33.2560434,171.741689 C33.9096544,171.741689 34.4532674,171.322421 34.6334089,170.732577 L38.2266749,161.663327 L38.4929018,160.853487 L38.7081152,161.653762 L41.7354497,170.656057 C41.8900845,171.280973 42.4512334,171.741689 43.1335395,171.741689 C43.7919329,171.741689 44.3371401,171.303291 44.5236584,170.689535 L50.6038343,155.192579 C50.693108,154.999684 50.7504982,154.787659 50.7504982,154.570851 C50.7504982,153.7642 50.0968872,153.110589 49.2982066,153.110589" id="Fill-4" fill="#1A1918"></path>
                <path d="M74.8735244,153.110589 C74.2517969,153.110589 73.7193431,153.505944 73.5136948,154.044774 L70.7828764,160.993774 L70.5182437,161.784484 L70.318972,160.977833 L68.1795918,154.221727 C68.1795918,154.193032 68.1795918,154.172308 68.1732151,154.159555 L68.1732151,154.140425 C67.9675668,153.574493 67.4287363,153.172762 66.8006322,153.172762 L63.371566,153.172762 C62.6063629,153.215804 61.998983,153.842314 61.998983,154.620271 C61.998983,154.829107 62.0802859,155.103305 62.1679654,155.361561 L62.6127396,156.775593 L60.9276988,161.00334 L60.653501,161.784484 L60.4462585,160.993774 L58.3339792,154.221727 C58.3100667,154.193032 58.3100667,154.172308 58.2989074,154.159555 L58.2989074,154.140425 C58.1076067,153.574493 57.5687762,153.172762 56.9518312,153.172762 L53.5163884,153.172762 C52.7368378,153.215804 52.131052,153.842314 52.131052,154.620271 C52.131052,154.829107 52.2282966,155.103305 52.296846,155.361561 L57.4444307,170.656057 C57.5974713,171.280973 58.1602144,171.741689 58.8361438,171.741689 C59.4754071,171.741689 60.0190201,171.322421 60.2119151,170.732577 L63.8051811,161.663327 L64.0538721,160.853487 L64.2818388,161.653762 L67.2980142,170.656057 C67.4606198,171.280973 68.0233629,171.741689 68.6992922,171.741689 C69.3560915,171.741689 69.9172404,171.303291 70.097382,170.689535 L76.1823404,155.192579 C76.2684258,154.999684 76.3210335,154.787659 76.3210335,154.570851 C76.3210335,153.7642 75.6706109,153.110589 74.8735244,153.110589" id="Fill-5" fill="#1A1918"></path>
                <path d="M91.4848073,153.140878 L79.4918436,153.140878 C78.7967842,153.140878 78.2436061,153.702027 78.2436061,154.395492 L78.2436061,154.401869 L78.2436061,157.43558 L78.2436061,170.322875 C78.2436061,170.334034 78.2436061,170.319687 78.2436061,170.322875 L78.2452003,170.322875 C78.2770838,171.041847 78.8717103,171.626909 79.587494,171.626909 L82.987865,171.626909 C83.7227788,171.60459 84.2950869,171.025905 84.314217,170.284615 C84.314217,170.412149 84.314217,162.846204 84.314217,162.846204 C84.314217,162.846204 89.1812272,162.83345 89.2003573,162.83345 C89.9193293,162.827073 90.4916375,162.2452 90.4916375,161.513475 C90.4916375,160.80088 89.906576,160.206253 89.1748505,160.206253 L84.3205937,160.206253 L84.314217,155.952999 L91.5501684,155.952999 C92.2978355,155.917928 92.892462,155.305765 92.892462,154.545345 C92.892462,153.767388 92.2547928,153.140878 91.4848073,153.140878" id="Fill-6" fill="#1A1918"></path>
                <path d="M72.8871848,102.385597 C75.0696076,104.831059 75.3007627,112.100488 80.7831238,109.208658 C84.0814677,107.471009 84.0368309,100.131437 79.6385075,97.4851096 C76.0819075,95.3839896 74.1354222,98.2200234 72.8441421,101.698509 C72.7468975,101.972707 72.7373325,102.24531 72.8871848,102.385597" id="Fill-7" fill="#1A1918"></path>
                <path d="M64.3711125,101.221851 C62.0802859,103.1237 60.5036487,108.333457 56.2870611,106.563925 C52.8819075,104.831059 52.555102,98.0797361 58.4248471,94.9599395 C62.5186834,93.0788154 64.5958909,96.8059919 64.6213976,100.761135 C64.6213976,100.898234 64.4874871,101.107071 64.3711125,101.221851" id="Fill-8" fill="#1A1918"></path>
                <path d="M70.0256442,114.510877 C72.2893699,114.276534 71.7792345,112.178602 70.0670927,111.652525 C68.5319041,111.194998 66.2060056,110.895293 64.5640074,110.927177 C61.6530475,110.995726 61.7247853,113.218003 63.2408438,113.595822 C64.3838659,113.978424 65.121968,114.128276 66.1151378,115.400426 C67.0190339,117.154016 66.6173023,114.877537 70.0256442,114.510877" id="Fill-9" fill="#1A1918"></path>
                <path d="M80.7081976,76.9362193 C83.5522023,72.2031196 88.5021095,73.1181749 90.9810486,75.477551 C93.7086786,78.0441696 94.1438879,81.0045489 93.1012987,83.088133 C91.6745138,85.8811242 88.0350168,89.2783069 85.6692641,85.9895279 C84.6234866,84.5420188 82.3964269,82.8075586 81.1880437,82.3069882 C79.3228613,81.5210609 78.9689549,79.8408026 80.7081976,76.9362193" id="Fill-10" fill="#1A1918"></path>
                <path d="M70.2185391,119.446437 C68.983055,122.724057 62.5473785,121.600165 62.3449186,118.427761 C62.3449186,118.300227 62.5186834,118.327328 62.5904212,118.346458 C65.4583385,119.01601 68.1795918,119.333251 70.0288325,119.323686 C70.0941936,119.323686 70.2504226,119.28702 70.2185391,119.446437 L70.2185391,119.446437 Z M92.0268261,97.8151034 C91.7749467,96.9749742 91.3540851,97.0212052 91.3764035,97.7162647 C91.6027761,106.347117 86.4535972,115.588538 75.4219199,115.6539 C72.6002336,115.657088 73.4483337,120.174974 68.3039373,117.904872 C64.5958909,115.400426 62.4724524,120.326421 59.8340961,115.02739 C59.2601938,113.498578 58.3881811,112.888009 57.2642892,112.609029 C46.3760874,109.911688 42.9023844,94.9232736 52.499306,82.8235003 C54.3963719,83.9569573 55.0930255,84.1307222 57.1160311,82.2719164 C58.1729678,81.2978767 59.9472823,80.2202158 60.911757,79.8647152 C63.2169312,78.9815433 64.468357,77.9979386 62.4724524,73.598021 C59.9122105,67.8845049 54.6673813,69.497808 52.2697451,71.4713942 C49.5644335,73.7064248 47.662585,77.3028791 51.1506356,81.5370027 C41.3942967,88.1193431 39.7220092,96.2018003 39.9483818,103.227321 C40.1763485,110.69921 38.2665292,110.061541 40.6514121,117.66734 C40.8618429,118.333704 40.3947502,118.319357 40.0360613,118.104143 C29.8684258,111.593541 24.3733113,91.7444925 40.217797,80.7957122 C40.5748918,80.4784718 40.4282279,80.0607985 39.1257885,80.8244073 C25.4079296,88.0794888 24.1469388,102.127341 26.4234179,111.593541 C27.5345564,116.176788 25.8463272,117.023294 27.622236,123.044486 C31.7049131,135.598598 35.186587,136.590174 40.1014224,136.953645 C49.0511097,136.953645 42.9836872,132.018086 43.3104927,125.819941 C43.3104927,125.454875 43.7520786,125.28111 44.0039579,126.023995 C48.9283584,137.071614 52.4068439,147.122875 65.3531231,146.182313 C72.8441421,145.208273 68.6865389,141.484285 68.2321995,139.375194 C62.7211434,121.086841 76.0914725,116.774603 72.3053116,134.605428 C69.8088367,144.822483 77.707964,143.79743 83.2716278,140.132426 C89.0058682,136.365395 96.1828352,111.499485 92.0268261,97.8151034 L92.0268261,97.8151034 Z" id="Fill-11" fill="#1A1918"></path>
                <path d="M39.0986876,138.743902 C37.5156737,138.743902 36.2259878,140.036776 36.2259878,141.611819 C36.2259878,143.199615 37.5188621,144.490895 39.0986876,144.490895 C40.6880781,144.490895 41.9618223,143.199615 41.9618223,141.611819 C41.9618223,140.036776 40.6880781,138.743902 39.0986876,138.743902 L39.0986876,138.743902 Z M41.497918,141.611819 C41.497918,142.938171 40.4154745,144.009455 39.0986876,144.009455 C37.7771181,144.009455 36.7058338,142.938171 36.7058338,141.611819 C36.7058338,140.29822 37.7771181,139.223748 39.0986876,139.223748 C40.4154745,139.223748 41.497918,140.29822 41.497918,141.611819 L41.497918,141.611819 Z" id="Fill-12" fill="#1A1918"></path>
                <path d="M39.9180925,142.059781 C39.8622964,142.408905 39.5689686,142.65122 39.1720195,142.65122 C38.6204356,142.65122 38.2681234,142.163403 38.2681234,141.605442 C38.2681234,141.023569 38.5853638,140.586766 39.167237,140.586766 C39.554621,140.586766 39.839978,140.811544 39.9180925,141.154291 L40.3198241,141.154291 C40.2480863,140.518216 39.7538927,140.16431 39.1560778,140.16431 C38.2984127,140.16431 37.8090016,140.786037 37.8090016,141.605442 C37.8090016,142.428035 38.3414554,143.052951 39.1720195,143.052951 C39.7538927,143.052951 40.2209854,142.676726 40.3389542,142.059781 L39.9180925,142.059781" id="Fill-13" fill="#1A1918"></path>
                <path d="M89.5670171,145.594063 C87.9664674,145.594063 86.6927231,146.877372 86.6927231,148.465169 C86.6927231,150.065718 87.9664674,151.33468 89.5670171,151.33468 C91.1420601,151.33468 92.431746,150.065718 92.431746,148.465169 C92.431746,146.877372 91.1420601,145.594063 89.5670171,145.594063 L89.5670171,145.594063 Z M91.9646533,148.465169 C91.9646533,149.794709 90.8806157,150.862805 89.5670171,150.862805 C88.2311001,150.862805 87.1598158,149.794709 87.1598158,148.465169 C87.1598158,147.145193 88.2311001,146.080286 89.5670171,146.080286 C90.8806157,146.080286 91.9646533,147.145193 91.9646533,148.465169 L91.9646533,148.465169 Z" id="Fill-14" fill="#1A1918"></path>
                <path d="M89.0696351,148.302563 L89.0696351,147.459246 L89.6228132,147.459246 C89.906576,147.459246 90.2142514,147.534172 90.2142514,147.864165 C90.2142514,148.283433 89.906576,148.302563 89.547887,148.302563 L89.0696351,148.302563 L89.0696351,148.302563 Z M89.0696351,148.661252 L89.5367278,148.661252 L90.2620765,149.828187 L90.7068508,149.828187 L89.9352711,148.629369 C90.3370027,148.579949 90.6414897,148.367924 90.6414897,147.894455 C90.6414897,147.352436 90.3274376,147.122875 89.6913626,147.122875 L88.6455851,147.122875 L88.6455851,149.828187 L89.0696351,149.828187 L89.0696351,148.661252 L89.0696351,148.661252 Z" id="Fill-15" fill="#1A1918"></path>
                <polyline id="Stroke-16" stroke="#1A1918" stroke-width="1.25" points="110.297643 0.586490758 110.297643 191.050313 8.94012231 191.050313 8.94012231 0.586490758"></polyline>
            </g>
        </g>
    </g>
</svg>
